PathFileType	4	(X/Y/Z)	C:\Github\FootballMatch-and-Movement-Analysis\output\test4 Exam_2026-03-06_143128_tvc1_Sports2D\test4 Exam_2026-03-06_143128_tvc1_Sports2D_px_person00.trc
DataRate	CameraRate	NumFrames	NumMarkers	Units	OrigDataRate	OrigDataStartFrame	OrigNumFrames
30.0	30.0	13	22	m	30.0	160	320
Frame#	Time	Hip			RHip			RKnee			RAnkle			RBigToe			RSmallToe			RHeel			LHip			LKnee			LAnkle			LBigToe			LSmallToe			LHeel			Neck			Head			Nose			RShoulder			RElbow			RWrist			LShoulder			LElbow			LWrist			
		X1	Y1	Z1	X2	Y2	Z2	X3	Y3	Z3	X4	Y4	Z4	X5	Y5	Z5	X6	Y6	Z6	X7	Y7	Z7	X8	Y8	Z8	X9	Y9	Z9	X10	Y10	Z10	X11	Y11	Z11	X12	Y12	Z12	X13	Y13	Z13	X14	Y14	Z14	X15	Y15	Z15	X16	Y16	Z16	X17	Y17	Z17	X18	Y18	Z18	X19	Y19	Z19	X20	Y20	Z20	X21	Y21	Z21	X22	Y22	Z22
160	5.35005224660397	705.7436102375033	698.072410866864	0.0	695.6421255662021	710.8397483614106	0.0	695.9665385117938	850.1946658214758	0.0	732.8727631587551	993.9453523456347	0.0	682.9946824942928	1034.016425138066	0.0	688.046994918442	1023.1775380203239	0.0	741.416803508991	1020.730006306942	0.0	718.7084059680772	710.8003802566792	0.0	702.4651574583382	856.8265677840142	0.0	737.6166661878556	1001.3901740005583	0.0	678.023667271302	1038.763437669587	0.0	700.2675049984659	1041.9752145554323	0.0	751.2304853288924	1027.0305765211763	0.0	663.3708695902967	439.9630796860759	0.0	595.7013134380134	351.95967207125653	0.0	592.8722296760225	426.62419267797185	0.0	660.0338609638233	477.5618659508645	0.0	689.2394031531667	591.5297799155945	0.0	682.0399325375431	687.6727721939596	0.0	714.1120749984107	455.36589415828223	0.0	736.4217604328456	569.6145706043919	0.0	731.4569374839755	700.1637314276979	0.0
161	5.383490073145245	705.1011000026085	698.051475429165	0.0	695.3487410615555	709.9934712658746	0.0	695.6545708565943	850.3570675923696	0.0	732.3297927543754	993.8429078652357	0.0	683.4756395987072	1034.130679030463	0.0	688.3140951633524	1023.3088274512495	0.0	740.6471994273747	1021.2391467743788	0.0	718.421210981073	709.3404582596274	0.0	702.5149663937793	857.2528040682072	0.0	737.3497468130552	1002.0660384164526	0.0	678.06684321558	1039.031212755986	0.0	699.9265523652239	1042.0483621746014	0.0	751.067983303711	1026.453088399112	0.0	662.7822201920975	440.48819587730424	0.0	594.7872982051829	353.1239006105615	0.0	592.7443149939561	427.31836013810596	0.0	659.8315343603119	477.17568755249977	0.0	688.7828854655502	591.5777005087945	0.0	681.5207832727003	688.223867077656	0.0	713.111632191656	455.5228312722659	0.0	736.5677629177864	569.3617895611447	0.0	731.0165817308554	699.9013952671128	0.0
162	5.41692789968652	704.2332520330646	698.2233416851428	0.0	694.6305902674555	708.2570838081724	0.0	694.9336685402417	850.4349637755635	0.0	732.0104725181927	993.5096289876972	0.0	684.0988293403093	1033.3480661922995	0.0	689.5863601517747	1023.2858761708345	0.0	739.3529743299323	1021.1712673068482	0.0	719.2903555403892	706.7838330784231	0.0	704.3227066899485	856.9894810186167	0.0	737.0608209235572	1002.3623223208162	0.0	678.7019891133543	1039.4045629594486	0.0	699.9162128863529	1042.6046841142738	0.0	750.4971120647638	1025.2683488138641	0.0	661.6230505628139	441.0046477175643	0.0	593.9736338173552	354.2918627176879	0.0	592.0695163252426	427.8199277464248	0.0	659.6701768063901	476.54139157150496	0.0	688.2891192634829	591.6762090114707	0.0	681.2920847256007	687.9505105505604	0.0	712.2196301972094	455.8943971342268	0.0	736.4102289244181	570.0719633190266	0.0	731.4212029679344	699.3870207814984	0.0
163	5.450365726227795	704.037168803445	698.9023466518877	0.0	694.1948105537153	707.7409452991689	0.0	694.3029198825675	850.1465702998217	0.0	732.1378562811683	993.6534582698448	0.0	684.4785459315676	1032.5455511988246	0.0	690.8207467927322	1022.9506340187291	0.0	738.9339373317769	1020.79404135203	0.0	721.1225083262267	705.7932895551061	0.0	706.1528355337196	856.5627067473358	0.0	736.5684636870349	1002.3090273686128	0.0	678.959284062973	1039.5465585456445	0.0	700.064331951372	1043.0550730571942	0.0	750.1298618591671	1024.5519281705444	0.0	660.8442046969335	441.54114753134286	0.0	593.3106573275616	354.95675711875924	0.0	590.5658467539859	428.8655269010104	0.0	659.6776106671111	476.9105664883408	0.0	688.0695719834272	592.4779158088543	0.0	681.3721643077611	687.3316908448171	0.0	711.8728600492627	456.65152901025846	0.0	736.2606725380458	571.8418802962914	0.0	732.2087386188579	699.4060063909545	0.0
164	5.48380355276907	704.9357464644668	699.573664762375	0.0	694.7168458060492	708.9435091925279	0.0	694.248637150666	849.81974218207	0.0	732.3528934094101	994.5429505328827	0.0	684.352727762495	1032.0181713324264	0.0	691.7789235585188	1022.7216848092638	0.0	740.0291372199018	1020.2406465523768	0.0	721.9189403531514	707.1044042792885	0.0	706.8515019329996	856.9453621378738	0.0	736.4789439558112	1002.3709106298403	0.0	678.750835886309	1039.127557953419	0.0	700.2947385154762	1042.7048188823537	0.0	750.7480067409801	1024.6274686570703	0.0	660.3876949961665	441.9097006815801	0.0	592.4788866321605	355.4954171179568	0.0	589.0409288803036	430.5132976275862	0.0	658.9102046448695	478.6012674970755	0.0	687.7674269883261	593.5507389394679	0.0	681.1569253576386	686.8918995233307	0.0	711.8821550061526	457.2821442901138	0.0	736.614400586257	572.8511955558597	0.0	733.834020379478	700.0285585124626	0.0
165	5.517241379310344	705.873139235892	699.7722693220161	0.0	695.4688376219825	710.0639277924546	0.0	694.3772527732447	849.9221516993666	0.0	732.4903564242	995.3859483699994	0.0	683.8117700449468	1031.9051054879844	0.0	692.5120927356219	1022.9245215097228	0.0	741.1814306793746	1019.7214657757909	0.0	720.7982005769795	708.788336023524	0.0	706.519740633297	857.8373552578068	0.0	737.0265790119329	1002.3296563744943	0.0	678.7138548583624	1038.6454030014486	0.0	700.5018814095856	1041.9493892470455	0.0	751.8205126186264	1024.9198742940061	0.0	659.7106671666533	442.2327730777503	0.0	591.2557356299101	356.33767725643304	0.0	588.6624339001595	431.7295978030992	0.0	657.1294992353878	480.09893474539706	0.0	686.9385865325573	594.1635125742337	0.0	680.4241854184144	687.0842592948455	0.0	711.7962033063523	457.47839499581505	0.0	737.297958016113	572.431624135033	0.0	735.9649071724082	700.6666154231015	0.0
166	5.550679205851619	706.038584049642	699.709918904806	0.0	695.5698449660972	709.9781105369403	0.0	694.2397204140898	850.5151069445484	0.0	732.6545671955996	995.770260162978	0.0	683.0878116797358	1032.5685358395622	0.0	692.2635711012374	1023.5939779848034	0.0	741.7414775742594	1020.3832771925323	0.0	719.7712695574567	709.4256166319024	0.0	706.2310949400861	858.1909672700365	0.0	737.4574372618195	1001.821845082904	0.0	678.9188860283851	1038.7217472863679	0.0	700.4459636051567	1041.9783223157972	0.0	752.3714735356186	1025.1802711157966	0.0	659.0291898279715	442.91438601486874	0.0	590.3714990024715	357.0694109462887	0.0	589.1130062274328	432.3486530295869	0.0	655.8179775088215	480.4924535036331	0.0	685.9812600472985	594.8084139241247	0.0	679.6287698568176	687.8972096912282	0.0	711.7415170392414	457.6345364198204	0.0	737.7062487667768	572.2604096003996	0.0	737.5098412540312	700.9857143453075	0.0
167	5.584117032392894	706.0082096886589	699.8992672495722	0.0	695.2838679653162	709.7867655414273	0.0	693.9806992310822	851.2089091556941	0.0	732.8308819688483	995.956257715192	0.0	682.6359351251074	1033.4141934263373	0.0	690.9982005320855	1024.2733583234244	0.0	742.6484779309562	1022.2018067862738	0.0	720.5644987235696	709.6669419733905	0.0	706.270814769302	857.81066153015	0.0	737.37277508822	1001.3159708757557	0.0	678.9204156458435	1039.2291004288736	0.0	700.3694040466403	1043.0990940631302	0.0	752.3775901496477	1025.4637491070716	0.0	658.7452486794318	443.81611839664794	0.0	590.5932144154048	357.27289222014963	0.0	589.2413600878674	433.03778530803015	0.0	656.1623919567957	480.4243898881909	0.0	685.6230017733989	595.8842154278648	0.0	679.3647344064825	688.5808757376576	0.0	711.8836656378011	457.7903127969631	0.0	737.5529268140507	572.8988417985461	0.0	737.933816200788	701.0364823535566	0.0
168	5.617554858934168	706.1563153633124	700.281595184268	0.0	694.9641653044011	710.198636377134	0.0	693.9063920988954	851.4096654365292	0.0	732.6113932493432	995.6018671223716	0.0	682.6817107736802	1033.4309899959635	0.0	689.9822457947105	1024.289835806263	0.0	743.2610839032	1023.1866599249723	0.0	721.6204480850989	709.9429367353193	0.0	705.7788824711329	857.2799603457868	0.0	737.2267339920348	1001.3207880621593	0.0	678.6803304335259	1039.568003491144	0.0	700.715939146592	1044.1438728223666	0.0	752.2920853953515	1025.450059274295	0.0	658.7304384771413	444.41304216211887	0.0	591.2252065669659	357.578130302763	0.0	588.8731104331692	433.5994572805526	0.0	657.4306156342467	480.3745166881266	0.0	685.9860274281108	596.3626973158505	0.0	679.754488850545	688.6622625731562	0.0	711.7581779746108	457.749514583533	0.0	737.0348769793245	573.231994289242	0.0	737.2201097689779	700.7882138758853	0.0
169	5.650992685475443	705.9060733840388	700.4009125063928	0.0	694.5023659686456	710.5109524766315	0.0	693.9651873932621	850.8927116463776	0.0	731.7326128256634	994.3951949622259	0.0	682.6137882696032	1033.0194232234633	0.0	689.7432278557342	1023.8570561195203	0.0	742.0252963244059	1022.6267732874417	0.0	720.7540615788722	709.6455466901257	0.0	704.5979188536913	856.9993843506895	0.0	737.1702685591815	1001.5914554134788	0.0	678.6027655771161	1039.4246016204636	0.0	701.238723378235	1044.0880178112777	0.0	752.0888255041954	1025.0876937436994	0.0	658.7144243841545	444.71965953059237	0.0	591.1088547002014	358.5696121631243	0.0	588.6524588394402	433.5391243071563	0.0	658.2688246606563	480.3318472380945	0.0	686.6973238677613	595.677213112567	0.0	680.4500451689697	688.4321845177104	0.0	711.2116085514384	457.92413824350564	0.0	736.5240316020684	573.3752057362777	0.0	735.8412995266765	700.343708661427	0.0
170	5.684430512016719	705.2038280214673	700.3647687313212	0.0	694.0318179349622	710.3778568295966	0.0	693.8063700077962	850.22702633588	0.0	730.8650864364131	993.3346825200146	0.0	681.9037599511013	1032.9215521637796	0.0	689.7154739626238	1023.653379341345	0.0	739.8920277090235	1021.9518334097049	0.0	718.9164630218994	708.923201124285	0.0	703.7321630877816	856.9849157793772	0.0	736.888566395176	1001.7086990350742	0.0	678.7905679855498	1038.9369286997464	0.0	701.2662420675917	1043.1273165027142	0.0	751.7631881330519	1025.0008861955628	0.0	658.6855968084753	445.2862745766122	0.0	590.4249106895971	359.6810866681358	0.0	588.7710392073815	433.3542781160749	0.0	658.4229817798341	480.588181265091	0.0	687.4448858751628	595.171833016315	0.0	681.0149803605298	688.2401683095168	0.0	711.0332797095452	458.72584205250814	0.0	736.4576685344335	574.6839051362243	0.0	734.8614451173218	700.3055417109462	0.0
171	5.717868338557993	704.9164694743554	700.5611545816347	0.0	693.9672247788071	710.1330929504309	0.0	693.3818806840859	850.3250326387321	0.0	730.8628721939771	993.3774802364385	0.0	681.1171717032231	1032.9007478718845	0.0	689.6941407355478	1023.7718958953866	0.0	738.9611024900883	1022.0415522127925	0.0	718.4345582728087	708.7381129216262	0.0	703.7404566417185	857.1229440460592	0.0	736.4402251836277	1001.6614291165345	0.0	678.8857036107298	1038.3729839544937	0.0	700.6492237973866	1041.96596654277	0.0	751.6594977143072	1025.4930960889583	0.0	658.7559464759131	446.1703688940025	0.0	589.8967200769027	360.19978238382265	0.0	588.7385275057673	433.62939436559486	0.0	658.3908228322657	481.30871246735734	0.0	687.8854933458678	595.8894971580861	0.0	681.1058815307915	688.2996097463141	0.0	711.5579170671406	459.70651874143846	0.0	737.0142270205064	577.0766477254153	0.0	735.1242811630763	701.1164376807415	0.0
172	5.751306165099268	705.3361627897018	701.0566543437415	0.0	694.4380973267394	710.1022568182877	0.0	693.1218996203158	851.2997005494467	0.0	731.4694140485385	994.007317336866	0.0	680.918700644957	1032.755818886038	0.0	689.8111381224476	1024.1845798169136	0.0	739.1889881682455	1022.3824964211742	0.0	719.0835428085501	709.2349200759671	0.0	703.8805912246441	857.3239912342444	0.0	736.2368869945852	1001.8986359694761	0.0	678.7361875405618	1037.862476868413	0.0	699.9056255054846	1041.1965973753947	0.0	751.7318354329857	1026.0639609426528	0.0	658.8820025006196	446.8340590670798	0.0	589.2946852813668	360.26312403978733	0.0	588.3622996125245	434.1237825508092	0.0	658.3035298420155	481.9198998415341	0.0	687.4391561070374	596.9472530598323	0.0	680.650940812867	688.7655030630497	0.0	712.2049950420292	460.1460635641835	0.0	737.7470884726816	578.5550484932771	0.0	736.2237221974106	702.3239424271069	0.0
